PathFileType	4	(X/Y/Z)	./resultDataOpenSim/trcMotMarkerGrf/sub09/qtm-13-03.trc
DataRate	CameraRate	NumFrames	NumMarkers	Units	OrigDataRate	OrigDataStartFrame	OrigNumFrames
250.000000	250.000000	9	24	m	250.000000	256	510
Frame#	Time	L.Toe.Tip			R.Toe.Tip			L.Ankle.Lat			R.Ankle.Lat			L.Ankle.Med			R.Ankle.Med			L.Heel			R.Heel			L.Knee.Lat			R.Knee.Lat			L.Knee.Med			R.Knee.Med			L.Thigh.Upper			R.Thigh.Upper			L.ASIS			R.ASIS			V.Sacral			L.Acromium			R.Acromium			C7			L.Elbow			R.Elbow			L.Wrist.Lat			R.Wrist.Lat
		X1	Y1	Z1	X2	Y2	Z2	X3	Y3	Z3	X4	Y4	Z4	X5	Y5	Z5	X6	Y6	Z6	X7	Y7	Z7	X8	Y8	Z8	X9	Y9	Z9	X10	Y10	Z10	X11	Y11	Z11	X12	Y12	Z12	X13	Y13	Z13	X14	Y14	Z14	X15	Y15	Z15	X16	Y16	Z16	X17	Y17	Z17	X18	Y18	Z18	X19	Y19	Z19	X20	Y20	Z20	X21	Y21	Z21	X22	Y22	Z22	X23	Y23	Z23	X24	Y24	Z24

256	1.02	0.087975294	-0.01029805	0.0090064075	0.46953567	0.11694331	0.1072525	-0.054840202	0.040461528	-0.045746204	0.32280631	0.13076757	0.13349903	-0.035178801	0.063251938	0.049651109	0.34260159	0.16897016	0.041273655	-0.13113827	0.015140754	0.00097032286	0.25792925	0.10289287	0.082607098	0.063538112	0.43975921	-0.11009164	0.41644789	0.57117088	0.15988698	0.063103575	0.44550253	0.014206267	0.41372624	0.55612995	0.035885519	0.12785402	0.85711677	-0.17141224	0.14758769	0.87508377	0.20077639	0.22454982	0.94006719	-0.11542452	0.22021704	0.95723624	0.12481449	0.057950059	1.0065434	-0.00036665886	0.24333836	1.3929543	-0.15315492	0.19507584	1.4098848	0.17350431	0.15701922	1.4554726	0.0012501487	0.10880041	1.0502227	-0.23605523	0.021377166	1.0966421	0.25143871	0.29233865	0.85448528	-0.26197709	0.10815372	0.84972045	0.32810028
257	1.024	0.087993006	-0.010280588	0.0089220935	0.48844451	0.11711641	0.10619544	-0.054544338	0.041080552	-0.045700232	0.34121878	0.12736881	0.13200988	-0.034644913	0.063929606	0.049847869	0.36040259	0.16624689	0.03990369	-0.13095617	0.016189327	0.0016098	0.27735122	0.09806224	0.080969039	0.06406263	0.44030249	-0.11045428	0.42393044	0.5711547	0.15967087	0.063672286	0.44574944	0.014488575	0.41983494	0.55559261	0.035772357	0.1323357	0.85679928	-0.17146556	0.15352317	0.87462613	0.20096868	0.23006581	0.93941635	-0.11559904	0.22625202	0.95661137	0.12477809	0.06408461	1.0059797	-3.5042047e-05	0.24924388	1.3923997	-0.15319159	0.20149764	1.4093585	0.17352955	0.1631827	1.4548934	0.0012949461	0.11502543	1.0493062	-0.23594147	0.027690403	1.0963757	0.25160532	0.29980996	0.85463108	-0.26178729	0.11310324	0.84905653	0.32825027
258	1.028	0.088019844	-0.010282296	0.0088355096	0.50721583	0.1174906	0.10526047	-0.054369689	0.041764953	-0.045584004	0.35957102	0.12418837	0.13042595	-0.034103009	0.064607487	0.050039925	0.37822263	0.16370503	0.038456246	-0.13076292	0.017262835	0.0022409506	0.29679602	0.093436766	0.079181547	0.064755014	0.44081603	-0.11080453	0.43056661	0.57102982	0.15960242	0.064433485	0.44595104	0.014737306	0.425926	0.55487496	0.035651847	0.13698724	0.85643247	-0.17141183	0.15944443	0.87408356	0.20117228	0.23557784	0.93869684	-0.11577918	0.23231651	0.95590084	0.12475013	0.070218957	1.0054075	0.00031007126	0.25516122	1.391801	-0.15323488	0.20791682	1.4087772	0.17355103	0.16938382	1.4542826	0.0013573382	0.12117313	1.0483713	-0.23570443	0.033925728	1.096071	0.25178422	0.30725895	0.85472515	-0.2615849	0.11813328	0.84835811	0.32840119
259	1.032	0.088056362	-0.010301055	0.0087463018	0.52583471	0.11806603	0.10445659	-0.05426694	0.042487332	-0.045397362	0.37781071	0.12124593	0.1287575	-0.033551679	0.065274579	0.050216882	0.39603688	0.16136215	0.036957937	-0.13056463	0.018357342	0.0028437754	0.31625717	0.089041119	0.077221693	0.06563095	0.4412952	-0.11113326	0.43663732	0.57062429	0.15958899	0.065647207	0.44620132	0.014679476	0.43209759	0.55401839	0.035418061	0.14181227	0.85602836	-0.17123524	0.16535862	0.87346122	0.20138416	0.24106768	0.93791477	-0.11596152	0.23841245	0.95511142	0.12472508	0.076250597	1.0048364	0.00066351011	0.26109771	1.3911611	-0.15327595	0.21432516	1.4081418	0.17356954	0.17561392	1.453642	0.0014322161	0.12734707	1.0474029	-0.23547377	0.040032049	1.0957496	0.25195546	0.31468585	0.85476956	-0.26136671	0.12326491	0.84763869	0.32856836
260	1.036	0.088099479	-0.010327811	0.0086581512	0.5442949	0.11880935	0.10376266	-0.054153905	0.043214856	-0.045176817	0.39591883	0.11852703	0.12701846	-0.032981906	0.065935591	0.050362619	0.41381936	0.15922602	0.035437769	-0.13035885	0.019469702	0.0034015402	0.33570541	0.084907222	0.075084983	0.066675672	0.44173573	-0.11142906	0.44251552	0.5697014	0.15956653	0.067238198	0.44650314	0.014404581	0.43843935	0.55306867	0.034965448	0.14672411	0.85559537	-0.17097652	0.17127818	0.87276648	0.20160312	0.24652852	0.93707329	-0.11613579	0.24454407	0.9542492	0.12469651	0.082181356	1.0042471	0.0010293673	0.2670542	1.3904795	-0.15331176	0.22072736	1.4074542	0.17358422	0.18186164	1.4529628	0.0015126937	0.13358958	1.0463868	-0.23530805	0.046052113	1.0954035	0.25211628	0.32209035	0.85476825	-0.26113226	0.12847099	0.8468937	0.32874984
261	1.04	0.088147489	-0.01035628	0.0085755025	0.5625964	0.11965297	0.10310983	-0.054003121	0.04393309	-0.044946343	0.41391537	0.115987	0.12522719	-0.03239521	0.06659699	0.050465567	0.43154134	0.15729915	0.033913506	-0.13013625	0.020597751	0.0039031013	0.35510885	0.081057429	0.072806296	0.067854212	0.4421319	-0.11168087	0.44828185	0.56816481	0.15951321	0.068959399	0.44684301	0.014119777	0.44490999	0.55203736	0.034322696	0.15161805	0.855134	-0.17067543	0.17721952	0.87200385	0.20183139	0.25196201	0.93617008	-0.11629811	0.25071864	0.95331736	0.12465869	0.088070048	1.0036176	0.0014103425	0.27302601	1.3897535	-0.15334712	0.22713755	1.4067152	0.17359639	0.18812235	1.4522295	0.0015885854	0.13988011	1.0453218	-0.23520838	0.052120514	1.0949939	0.25229421	0.32947224	0.85472252	-0.26088511	0.13372345	0.84611396	0.32893888
262	1.044	0.088199659	-0.010383844	0.0085011318	0.58074587	0.1205279	0.10240991	-0.053850627	0.044651911	-0.044694768	0.43183132	0.11359441	0.123397	-0.031807735	0.067255881	0.050534905	0.44916565	0.15558206	0.032388501	-0.12988838	0.021738493	0.0043427934	0.37443626	0.077509364	0.070443564	0.069133662	0.44247781	-0.11189254	0.453777	0.56618737	0.15945638	0.07068179	0.44721025	0.013895002	0.45131055	0.55088643	0.033686784	0.15642802	0.85463639	-0.17034796	0.18320085	0.87117727	0.20207138	0.25737467	0.93520475	-0.11645513	0.25694173	0.95232005	0.12460543	0.093965569	1.0029402	0.0018067379	0.27901122	1.3889791	-0.15338825	0.23356375	1.4059233	0.17361237	0.19439669	1.451435	0.0016546138	0.14618525	1.0442186	-0.23514797	0.05832974	1.09449	0.2525286	0.33683116	0.85462808	-0.26062948	0.13902885	0.84529785	0.32912767
263	1.048	0.088255382	-0.010409454	0.0084348726	0.59874949	0.12139464	0.10159496	-0.053771922	0.045401816	-0.044382791	0.44968269	0.1113517	0.12153301	-0.031232004	0.067907913	0.050591261	0.46664068	0.15407105	0.030855647	-0.12961462	0.022888184	0.0047170901	0.39364757	0.0742869	0.068046617	0.070514338	0.44277508	-0.1120804	0.45895003	0.56404032	0.15942333	0.072427216	0.44758426	0.013696808	0.45746099	0.5495733	0.033245389	0.16114341	0.85410028	-0.17001502	0.18923161	0.87029124	0.2023177	0.26277308	0.9341847	-0.11661826	0.2632146	0.95126382	0.12452871	0.099888819	1.0022204	0.0022203916	0.2850152	1.3881544	-0.15343649	0.24000738	1.4050773	0.17363791	0.20068642	1.4505862	0.0017191544	0.15249145	1.0430878	-0.23508814	0.064644644	1.0938987	0.25284019	0.34416713	0.85447953	-0.26036543	0.14442456	0.8444498	0.32930801
264	1.052	0.088313513	-0.010433368	0.0083748022	0.61659097	0.12225107	0.100624	-0.053836141	0.04621434	-0.043975481	0.46747269	0.10927466	0.11964226	-0.03065929	0.068554572	0.050641135	0.48390519	0.15276353	0.029303313	-0.12932424	0.024046532	0.0050277568	0.41269854	0.071414748	0.065641663	0.072035684	0.44303599	-0.11226116	0.46393789	0.56189055	0.15941189	0.074263615	0.44793293	0.013497383	0.46334687	0.54809308	0.033023453	0.16582458	0.85354031	-0.16971317	0.19531151	0.86934818	0.20255945	0.26816444	0.93312005	-0.11679939	0.26953444	0.95015384	0.12442096	0.10584237	1.0014673	0.0026537324	0.29104786	1.3872835	-0.15348831	0.24647415	1.4041762	0.17367098	0.20699449	1.4496952	0.0017932341	0.15880091	1.0419312	-0.23500266	0.070980416	1.0932475	0.25321326	0.35148121	0.85427656	-0.26009126	0.14994157	0.84357115	0.3294759
